# File created by Blade
# Date/Time:  Wed Apr 08 17:20:14 2015
#---------------------------------------------------------
:version 1.10
:name HOM
:units
  mass 1.0
  length 1.000000
  angle deg
:documentation
     Acclaim Skeleton File
:root
   axis xyz
   order TX TY TZ RX RY RZ
   position 0.000000 0.000000 0.000000
   orientation 0 0 0
:bonedata
   begin
      id 1
      name Spine_dum
      direction 0.000000 1.000000 0.000000
      length 5.893853
      axis 0.0 0.0 0.0 xyz
   end
   begin
      id 2
      name LeftUpLeg_dum
      direction 1.000000 0.000000 0.000000
      length 3.697939
      axis 0.0 0.0 0.0 xyz
   end
   begin
      id 3
      name RightUpLeg_dum
      direction -1.000000 0.000000 0.000000
      length 3.697939
      axis 0.0 0.0 0.0 xyz
   end
   begin
      id 4
      name Spine
      direction 0.000000 1.000000 0.000000
      length 0.000000
      axis 0.0 0.0 0.0 xyz
      dof rx ry rz
   end
   begin
      id 5
      name Spine_dum1
      direction 0.000000 1.000000 0.000000
      length 16.447146
      axis 0.0 0.0 0.0 xyz
   end
   begin
      id 6
      name Spine_dum2
      direction 0.000000 1.000000 0.000000
      length 10.900383
      axis 0.0 0.0 0.0 xyz
   end
   begin
      id 7
      name Spine_dum3
      direction 0.000000 1.000000 0.000000
      length 10.900383
      axis 0.0 0.0 0.0 xyz
   end
   begin
      id 8
      name Head
      direction 0.000000 1.000000 0.000000
      length 4.527550
      axis 0.0 0.0 0.0 xyz
      dof rx ry rz
   end
   begin
      id 9
      name LeftShoulder
      direction 1.000000 0.000000 0.000000
      length 8.219464
      axis 0.0 0.0 -90.0 xyz
      dof rx ry rz
   end
   begin
      id 10
      name LeftArm
      direction 1.000000 0.000000 0.000000
      length 11.094937
      axis 0.0 0.0 -90.0 xyz
      dof rx ry rz
   end
   begin
      id 11
      name LeftForeArm
      direction 1.000000 0.000000 0.000000
      length 9.103875
      axis 0.0 0.0 -90.0 xyz
      dof ry rz rx
   end
   begin
      id 12
      name LeftHand
      direction 0.000000 0.000000 0.000000
      length 0.000000
      axis 0.0 0.0 -90.0 xyz
      dof rx ry rz
   end
   begin
      id 13
      name LeftHand_dum1
      direction 0.000000 0.000000 0.000000
      length 0.000000
      axis 0.0 0.0 -90.0 xyz
   end
   begin
      id 14
      name LeftHand_dum2
      direction 1.000000 0.000000 0.000000
      length 3.937000
      axis 0.0 0.0 -90.0 xyz
   end
   begin
      id 15
      name LeftHandThumb1
      direction 0.000000 0.000000 1.000000
      length 3.937000
      axis 0.0 0.0 -90.0 xyz
      dof rx rz ry
   end
   begin
      id 16
      name RightShoulder
      direction -1.000000 0.000000 0.000000
      length 8.219464
      axis 0.0 0.0 90.0 xyz
      dof rx ry rz
   end
   begin
      id 17
      name RightArm
      direction -1.000000 0.000000 0.000000
      length 11.094937
      axis 0.0 0.0 90.0 xyz
      dof rx ry rz
   end
   begin
      id 18
      name RightForeArm
      direction -1.000000 0.000000 0.000000
      length 9.103875
      axis 0.0 0.0 90.0 xyz
      dof ry rz rx
   end
   begin
      id 19
      name RightHand
      direction 0.000000 0.000000 0.000000
      length 0.000000
      axis 0.0 0.0 90.0 xyz
      dof rx ry rz
   end
   begin
      id 20
      name RightHand_dum1
      direction 0.000000 0.000000 0.000000
      length 0.000000
      axis 0.0 0.0 90.0 xyz
   end
   begin
      id 21
      name RightHand_dum2
      direction -1.000000 0.000000 0.000000
      length 3.937000
      axis 0.0 0.0 90.0 xyz
   end
   begin
      id 22
      name RightHandThumb1
      direction 0.000000 0.000000 1.000000
      length 3.937000
      axis 0.0 0.0 90.0 xyz
      dof rx rz ry
   end
   begin
      id 23
      name LeftUpLeg
      direction 0.000000 -1.000000 0.000000
      length 16.181467
      axis 0.0 0.0 0.0 xyz
      dof rx ry rz
   end
   begin
      id 24
      name LeftLeg
      direction 0.000000 -1.000000 0.000000
      length 16.501392
      axis 0.0 0.0 0.0 xyz
      dof rx ry rz
   end
   begin
      id 25
      name LeftFoot
      direction 0.000000 -0.258819 0.965926
      length 6.408245
      axis 15.0 0.0 0.0 xyz
      dof rx ry rz
   end
   begin
      id 26
      name LeftToeBase
      direction 0.000000 0.000000 1.000000
      length 2.952750
      axis 0.0 0.0 0.0 xyz
      dof rx ry rz
   end
   begin
      id 27
      name RightUpLeg
      direction 0.000000 -1.000000 0.000000
      length 16.181467
      axis 0.0 0.0 0.0 xyz
      dof rx ry rz
   end
   begin
      id 28
      name RightLeg
      direction 0.000000 -1.000000 0.000000
      length 16.501392
      axis 0.0 0.0 0.0 xyz
      dof rx ry rz
   end
   begin
      id 29
      name RightFoot
      direction 0.000000 -0.258819 0.965926
      length 6.408245
      axis 15.0 0.0 0.0 xyz
      dof rx ry rz
   end
   begin
      id 30
      name RightToeBase
      direction 0.000000 0.000000 1.000000
      length 2.952750
      axis 0.0 0.0 0.0 xyz
      dof rx ry rz
   end
:hierarchy
   begin
      root Spine_dum LeftUpLeg_dum RightUpLeg_dum
      Spine_dum Spine
      LeftUpLeg_dum LeftUpLeg
      RightUpLeg_dum RightUpLeg
      Spine Spine_dum1 Spine_dum2 Spine_dum3
      Spine_dum1 Head
      Spine_dum2 LeftShoulder
      Spine_dum3 RightShoulder
      LeftShoulder LeftArm
      LeftArm LeftForeArm
      LeftForeArm LeftHand
      LeftHand LeftHand_dum1 LeftHand_dum2
      LeftHand_dum1 LeftHandThumb1
      RightShoulder RightArm
      RightArm RightForeArm
      RightForeArm RightHand
      RightHand RightHand_dum1 RightHand_dum2
      RightHand_dum1 RightHandThumb1
      LeftUpLeg LeftLeg
      LeftLeg LeftFoot
      LeftFoot LeftToeBase
      RightUpLeg RightLeg
      RightLeg RightFoot
      RightFoot RightToeBase
   end

# File created by Blade
# Date/Time:  Wed Apr 08 17:19:54 2015
# Frame Rate: 120.000 fps
#------------------------------------------------------
:FULLY-SPECIFIED
:DEGREES
585
root 5.846620 35.818949 1.441104 -9.131756 -21.582329 1.454643
Spine 8.664154 0.757207 5.958648
Head 22.598134 28.006864 6.767574
LeftShoulder -6.922460 16.588502 15.266051
LeftArm 16.837869 20.640424 -76.172981
LeftForeArm 21.053727 -0.000000 20.128216
LeftHand -10.983735 0.000000 -15.354379
LeftHandThumb1 -26.253704 0.000000 33.147579
RightShoulder -28.796798 -48.180276 22.655447
RightArm 62.087502 -23.834513 45.510993
RightForeArm 26.243561 0.000000 5.772672
RightHand -8.090051 -0.000000 18.164396
RightHandThumb1 -24.326973 -0.000000 -32.862282
LeftUpLeg 11.907693 -1.149897 -7.855577
LeftLeg 10.212079 -0.000000 -0.000000
LeftFoot -14.777805 -7.725187 -1.945170
LeftToeBase 15.761748 -0.000000 -0.000000
RightUpLeg -32.837785 10.646975 2.891160
RightLeg 155.057093 -0.000000 -0.000000
RightFoot 35.101157 8.243767 11.284328
RightToeBase 8.338504 -0.000000 -0.000000
586
root 5.820567 35.828273 1.458959 -9.097716 -21.596542 1.323098
Spine 8.584649 0.829572 5.996082
Head 22.713091 27.917833 6.908467
LeftShoulder -6.921540 16.600015 15.279999
LeftArm 16.734189 20.579788 -76.239227
LeftForeArm 21.085170 -0.000000 20.036962
LeftHand -10.929866 0.000000 -15.521289
LeftHandThumb1 -26.253704 0.000000 33.147579
RightShoulder -28.848132 -48.235613 22.735717
RightArm 61.927420 -23.886408 45.598000
RightForeArm 26.433840 -0.000000 5.758991
RightHand -8.149938 -0.000000 18.242697
RightHandThumb1 -24.326973 -0.000000 -32.862282
LeftUpLeg 11.981473 -1.245901 -7.771253
LeftLeg 10.187064 -0.000000 -0.000000
LeftFoot -14.718750 -7.458350 -1.675207
LeftToeBase 14.917346 -0.000000 -0.000000
RightUpLeg -32.511319 10.381194 3.028743
RightLeg 155.003681 -0.000000 -0.000000
RightFoot 35.512773 8.311476 11.621089
RightToeBase 8.785812 -0.000000 -0.000000
587
root 5.793584 35.836234 1.474030 -9.023799 -21.661168 1.180907
Spine 8.477518 0.936246 6.054372
Head 22.791919 27.856327 7.023251
LeftShoulder -6.933829 16.581483 15.259112
LeftArm 16.585952 20.501171 -76.286071
LeftForeArm 21.053753 0.000000 19.988306
LeftHand -10.923757 -0.000000 -15.658650
LeftHandThumb1 -26.253704 0.000000 33.147579
RightShoulder -28.894122 -48.264560 22.810983
RightArm 61.746964 -23.939953 45.710597
RightForeArm 26.548185 0.000000 5.712632
RightHand -8.152526 -0.000000 18.327530
RightHandThumb1 -24.326973 -0.000000 -32.862282
LeftUpLeg 12.059600 -1.590660 -7.752220
LeftLeg 10.099449 -0.000000 -0.000000
LeftFoot -14.709980 -6.913359 -1.510095
LeftToeBase 14.617081 -0.000000 -0.000000
RightUpLeg -32.267225 10.157547 3.206779
RightLeg 154.944751 -0.000000 -0.000000
RightFoot 35.825662 8.278391 11.990268
RightToeBase 9.927472 -0.000000 -0.000000
588
root 5.766907 35.841215 1.484545 -8.929030 -21.754794 1.059352
Spine 8.361212 1.021329 6.075313
Head 22.833140 27.867962 7.140015
LeftShoulder -6.995866 16.585753 15.214581
LeftArm 16.455063 20.486831 -76.267785
LeftForeArm 21.008700 -0.000000 19.986909
LeftHand -10.890468 0.000000 -15.790943
LeftHandThumb1 -26.253704 0.000000 33.147579
RightShoulder -28.928327 -48.301135 22.879862
RightArm 61.659174 -24.043789 45.728240
RightForeArm 26.790506 -0.000000 5.591232
RightHand -8.051747 -0.000000 18.060887
RightHandThumb1 -24.326973 -0.000000 -32.862282
LeftUpLeg 12.084207 -1.827060 -7.707328
LeftLeg 10.044036 -0.000000 -0.000000
LeftFoot -14.716293 -6.520890 -1.343433
LeftToeBase 14.334291 -0.000000 -0.000000
RightUpLeg -32.091415 9.951507 3.374607
RightLeg 154.887515 -0.000000 -0.000000
RightFoot 36.091550 8.203500 12.270666
RightToeBase 10.357820 -0.000000 -0.000000
589
root 5.747796 35.843669 1.492760 -8.843275 -21.897451 0.975565
Spine 8.280980 1.131833 6.074797
Head 22.782399 27.909824 7.221254
LeftShoulder -7.082094 16.613441 15.131807
LeftArm 16.365550 20.477875 -76.213779
LeftForeArm 20.990434 -0.000000 20.024466
LeftHand -10.835884 -0.000000 -15.812775
LeftHandThumb1 -26.253704 0.000000 33.147579
RightShoulder -28.954870 -48.316334 22.943446
RightArm 61.568101 -24.099338 45.774389
RightForeArm 26.882616 -0.000000 5.520482
RightHand -7.937091 -0.000000 18.047718
RightHandThumb1 -24.326973 -0.000000 -32.862282
LeftUpLeg 12.068477 -1.943146 -7.669811
LeftLeg 10.030879 -0.000000 -0.000000
LeftFoot -14.722796 -6.223930 -1.216911
LeftToeBase 14.047419 -0.000000 -0.000000
RightUpLeg -31.956199 9.840770 3.432212
RightLeg 154.839997 -0.000000 -0.000000
RightFoot 36.326108 8.246415 12.479263
RightToeBase 10.429522 -0.000000 -0.000000
590
root 5.729259 35.844089 1.501145 -8.775846 -22.031924 0.908746
Spine 8.229091 1.200736 6.043476
Head 22.682072 28.003570 7.309850
LeftShoulder -7.189739 16.625398 15.065509
LeftArm 16.244720 20.476353 -76.176876
LeftForeArm 21.048757 0.000000 20.084613
LeftHand -10.834674 0.000000 -15.977662
LeftHandThumb1 -26.253704 0.000000 33.147579
RightShoulder -28.995924 -48.365217 23.022293
RightArm 61.531405 -24.121185 45.847261
RightForeArm 26.973412 -0.000000 5.458890
RightHand -7.856486 -0.000000 18.047740
RightHandThumb1 -24.326973 -0.000000 -32.862282
LeftUpLeg 12.066058 -1.949175 -7.609627
LeftLeg 10.009782 -0.000000 -0.000000
LeftFoot -14.738147 -6.075128 -1.125462
LeftToeBase 13.858880 -0.000000 -0.000000
RightUpLeg -31.823568 9.753406 3.485181
RightLeg 154.781399 -0.000000 -0.000000
RightFoot 36.564335 8.314099 12.627838
RightToeBase 10.486865 -0.000000 -0.000000
591
root 5.724275 35.841833 1.505287 -8.828959 -22.390958 0.871960
Spine 8.401164 1.457185 6.071145
Head 22.416496 28.138501 7.261184
LeftShoulder -7.286768 16.606147 14.984946
LeftArm 16.167137 20.449713 -76.184471
LeftForeArm 21.035899 0.000000 20.130715
LeftHand -10.831390 -0.000000 -15.913725
LeftHandThumb1 -26.253704 0.000000 33.147579
RightShoulder -29.001560 -48.378395 22.989354
RightArm 61.480877 -24.034901 46.116149
RightForeArm 26.804474 0.000000 5.427083
RightHand -7.958563 0.000000 17.946403
RightHandThumb1 -24.326973 -0.000000 -32.862282
LeftUpLeg 12.168562 -1.654474 -7.536973
LeftLeg 9.951905 -0.000000 -0.000000
LeftFoot -14.765464 -6.010940 -1.063857
LeftToeBase 13.798480 -0.000000 -0.000000
RightUpLeg -31.658783 9.916746 3.461991
RightLeg 154.796254 -0.000000 -0.000000
RightFoot 36.719821 8.499260 12.630714
RightToeBase 10.027821 -0.000000 -0.000000
592
root 5.720754 35.837761 1.504223 -8.893906 -22.706298 0.850505
Spine 8.610776 1.666225 6.069520
Head 22.081871 28.286778 7.187499
LeftShoulder -7.355438 16.580333 14.928561
LeftArm 16.095403 20.425750 -76.192848
LeftForeArm 21.067019 -0.000000 20.178700
LeftHand -10.830098 -0.000000 -15.988549
LeftHandThumb1 -26.253704 0.000000 33.147579
RightShoulder -28.984969 -48.367382 22.915512
RightArm 61.504772 -24.051894 46.223048
RightForeArm 26.848961 -0.000000 5.404022
RightHand -7.979507 0.000000 17.817901
RightHandThumb1 -24.326973 -0.000000 -32.862282
LeftUpLeg 12.260507 -1.340809 -7.459004
LeftLeg 9.907963 -0.000000 -0.000000
LeftFoot -14.801298 -6.037274 -1.039557
LeftToeBase 13.772836 -0.000000 -0.000000
RightUpLeg -31.492183 10.031406 3.441786
RightLeg 154.834702 -0.000000 -0.000000
RightFoot 36.828973 8.722221 12.585663
RightToeBase 8.976610 -0.000000 -0.000000
593
root 5.706299 35.834650 1.504304 -8.870700 -22.807955 0.842658
Spine 8.643352 1.702148 5.947730
Head 21.870317 28.402471 7.285651
LeftShoulder -7.387104 16.631284 14.920072
LeftArm 16.055509 20.413957 -76.161927
LeftForeArm 21.063288 -0.000000 20.215964
LeftHand -10.807530 -0.000000 -15.789211
LeftHandThumb1 -26.253704 0.000000 33.147579
RightShoulder -29.090776 -48.405377 23.032984
RightArm 61.540458 -23.990130 46.389069
RightForeArm 26.704979 -0.000000 5.337914
RightHand -8.190906 -0.000000 17.670747
RightHandThumb1 -24.326973 -0.000000 -32.862282
LeftUpLeg 12.265517 -1.158507 -7.376158
LeftLeg 9.874834 -0.000000 -0.000000
LeftFoot -14.816000 -6.177405 -1.053893
LeftToeBase 13.739707 -0.000000 -0.000000
RightUpLeg -31.309736 9.984585 3.383031
RightLeg 154.838812 -0.000000 -0.000000
RightFoot 36.881055 8.846802 12.795996
RightToeBase 8.329647 -0.000000 -0.000000
594
root 5.652398 35.834016 1.507025 -8.503590 -22.228738 0.947131
Spine 7.969476 1.219277 5.355074
Head 22.120296 28.312081 7.972546
LeftShoulder -7.326783 16.869341 15.115246
LeftArm 16.010065 20.419732 -76.025720
LeftForeArm 21.060911 -0.000000 20.222605
LeftHand -10.870726 -0.000000 -15.837109
LeftHandThumb1 -26.253704 0.000000 33.147579
RightShoulder -29.472312 -48.562653 23.677316
RightArm 61.557113 -23.968833 46.476098
RightForeArm 26.532037 -0.000000 5.197335
RightHand -8.386970 -0.000000 17.523913
RightHandThumb1 -24.326973 -0.000000 -32.862282
LeftUpLeg 11.855855 -1.549449 -7.369384
LeftLeg 9.965759 -0.000000 -0.000000
LeftFoot -14.803341 -6.570727 -1.180410
LeftToeBase 13.739157 -0.000000 -0.000000
RightUpLeg -31.282571 9.088347 3.424029
RightLeg 154.764762 -0.000000 -0.000000
RightFoot 36.792933 8.537783 13.009151
RightToeBase 7.897686 -0.000000 -0.000000
595
root 5.640601 35.831684 1.513160 -8.548574 -22.314602 1.009855
Spine 8.022508 1.211617 5.169293
Head 22.016138 28.416795 8.076286
LeftShoulder -7.333209 16.942482 15.142664
LeftArm 15.994868 20.470138 -76.009384
LeftForeArm 20.925876 -0.000000 20.197572
LeftHand -10.945016 -0.000000 -15.754731
LeftHandThumb1 -26.253704 0.000000 33.147579
RightShoulder -29.550823 -48.621089 23.758235
RightArm 61.701900 -24.035185 46.436724
RightForeArm 26.591757 0.000000 5.088154
RightHand -8.376852 -0.000000 17.683698
RightHandThumb1 -24.326973 -0.000000 -32.862282
LeftUpLeg 11.922905 -1.359329 -7.370279
LeftLeg 9.901622 -0.000000 -0.000000
LeftFoot -14.800541 -6.670587 -1.187987
LeftToeBase 13.803733 -0.000000 -0.000000
RightUpLeg -31.031470 8.926221 3.390800
RightLeg 154.794955 -0.000000 -0.000000
RightFoot 36.844890 8.593960 12.870737
RightToeBase 7.001039 -0.000000 -0.000000
596
root 5.629813 35.830773 1.522238 -8.618967 -22.403664 1.067712
Spine 8.091025 1.196430 5.010833
Head 21.999404 28.496003 8.154991
LeftShoulder -7.340304 16.997932 15.151001
LeftArm 16.014313 20.536171 -75.983251
LeftForeArm 20.773924 -0.000000 20.072367
LeftHand -10.931995 -0.000000 -15.622037
LeftHandThumb1 -26.253704 0.000000 33.147579
RightShoulder -29.564608 -48.652982 23.750148
RightArm 61.789435 -24.161449 46.425999
RightForeArm 26.722776 -0.000000 4.975322
RightHand -8.404337 -0.000000 17.656426
RightHandThumb1 -24.326973 -0.000000 -32.862282
LeftUpLeg 12.033640 -1.236907 -7.395524
LeftLeg 9.807027 -0.000000 -0.000000
LeftFoot -14.773836 -6.689184 -1.226537
LeftToeBase 13.819221 -0.000000 -0.000000
RightUpLeg -30.683778 8.772823 3.363341
RightLeg 154.804350 -0.000000 -0.000000
RightFoot 36.994918 8.557566 12.876892
RightToeBase 6.162691 -0.000000 -0.000000
